<svg xmlns="http://www.w3.org/2000/svg" xmlns:xlink="http://www.w3.org/1999/xlink" width="2000" zoomAndPan="magnify" viewBox="0 0 1500 1499.999933" height="2000" preserveAspectRatio="xMidYMid meet" version="1.0"><defs><g/><clipPath id="cebf2c6d1a"><path d="M 199 319.570312 L 1300 319.570312 L 1300 1180.570312 L 199 1180.570312 Z M 199 319.570312 " clip-rule="nonzero"/></clipPath><clipPath id="bdca50ff0a"><path d="M 126.1875 548 L 1374 548 L 1374 759 L 126.1875 759 Z M 126.1875 548 " clip-rule="nonzero"/></clipPath><clipPath id="fafca34380"><path d="M 529.585938 897.855469 L 608.335938 897.855469 L 608.335938 954.105469 L 529.585938 954.105469 Z M 529.585938 897.855469 " clip-rule="nonzero"/></clipPath><clipPath id="c144f18c1a"><path d="M 892.566406 897.855469 L 971.316406 897.855469 L 971.316406 954.105469 L 892.566406 954.105469 Z M 892.566406 897.855469 " clip-rule="nonzero"/></clipPath><clipPath id="0eded06a32"><path d="M 0.566406 0.855469 L 79.210938 0.855469 L 79.210938 57.105469 L 0.566406 57.105469 Z M 0.566406 0.855469 " clip-rule="nonzero"/></clipPath><clipPath id="12a1c33753"><rect x="0" width="80" y="0" height="58"/></clipPath><clipPath id="fa5fced34c"><path d="M 212.582031 643.71875 L 371.582031 643.71875 L 371.582031 691.71875 L 212.582031 691.71875 Z M 212.582031 643.71875 " clip-rule="nonzero"/></clipPath><clipPath id="3d68f7b2c1"><path d="M 4 0.71875 L 152 0.71875 L 152 37 L 4 37 Z M 4 0.71875 " clip-rule="nonzero"/></clipPath><clipPath id="7fe596cabc"><path d="M 0.582031 8 L 159.347656 8 L 159.347656 48 L 0.582031 48 Z M 0.582031 8 " clip-rule="nonzero"/></clipPath><clipPath id="c916537939"><path d="M 12 17 L 139 17 L 139 48.34375 L 12 48.34375 Z M 12 17 " clip-rule="nonzero"/></clipPath><clipPath id="2d53a93ab9"><rect x="0" width="160" y="0" height="49"/></clipPath><clipPath id="b012f3ac1e"><rect x="0" width="761" y="0" height="163"/></clipPath><clipPath id="cfaa784cc5"><rect x="0" width="296" y="0" height="146"/></clipPath></defs><g clip-path="url(#cebf2c6d1a)"><path fill="#fefdfd" d="M 1105 503.226562 C 950.589844 446.773438 748.660156 319.742188 748.660156 319.742188 C 748.660156 319.742188 547.121094 447.40625 392.886719 504.335938 C 392.886719 504.335938 392.679688 529.902344 393.582031 569.429688 C 404.777344 566.855469 416.632812 564.1875 428.902344 561.484375 C 428.648438 548.65625 428.492188 537.5625 428.414062 528.660156 C 553.53125 478.65625 697.613281 392.824219 748.722656 361.453125 C 799.925781 392.671875 944.261719 478.050781 1069.535156 527.652344 C 1069.417969 547.25 1069.015625 577.492188 1067.761719 613.265625 C 1079.957031 613.4375 1091.777344 613.910156 1103.234375 614.644531 C 1105.523438 549.925781 1105 503.226562 1105 503.226562 Z M 1299.742188 881.121094 L 1070.871094 902.882812 C 1028.328125 1066.53125 750 1180.253906 750 1180.253906 C 750 1180.253906 471.308594 1067.398438 428.265625 903.882812 L 199.328125 882.839844 L 459.601562 882.839844 C 460.351562 886.066406 461.125 889.246094 461.921875 892.355469 C 462.085938 893.003906 462.253906 893.65625 462.417969 894.304688 C 477.441406 952.367188 533.085938 1014.085938 623.296875 1072.8125 C 675.957031 1107.09375 726.609375 1131.179688 749.9375 1141.609375 C 773.226562 1131.101562 823.800781 1106.863281 876.363281 1072.417969 C 966.394531 1013.417969 1021.828125 951.515625 1036.691406 893.414062 C 1036.777344 893.089844 1036.855469 892.765625 1036.9375 892.441406 C 1037.8125 888.988281 1038.664062 885.484375 1039.492188 881.894531 L 1075.855469 881.785156 Z M 1299.742188 881.121094 " fill-opacity="1" fill-rule="nonzero"/></g><g clip-path="url(#bdca50ff0a)"><path fill="#004aad" d="M 1373.820312 755.175781 C 1373.820312 755.175781 1373.820312 740.683594 1360.707031 729.644531 C 1360.707031 729.644531 1240.105469 622.335938 988.074219 645.113281 C 988.074219 645.113281 861.796875 580.9375 764.492188 554.019531 C 764.492188 554.019531 717.566406 543.320312 638.898438 551.945312 C 560.234375 560.574219 361.152344 604.394531 322.507812 617.160156 C 322.507812 617.160156 382.882812 615.78125 438.433594 627.164062 C 438.433594 627.164062 212.4375 615.773438 126.179688 643.378906 C 126.179688 643.378906 182.300781 680.183594 206.222656 691.6875 C 206.222656 691.6875 188.28125 723.886719 191.042969 758.847656 C 191.042969 758.847656 222.324219 639.238281 342.863281 695.363281 C 342.863281 695.363281 390.707031 679.261719 625.785156 655.796875 C 625.785156 655.796875 601.40625 644.292969 591.746094 640.152344 L 832.347656 650.273438 C 832.347656 650.273438 625.328125 663.386719 479.269531 691.679688 C 479.269531 691.679688 870.074219 647.519531 1005.328125 661.320312 C 1005.328125 661.320312 883.875 670.75 795.546875 699.5 C 795.546875 699.5 997.039062 665.460938 1075.707031 695.816406 C 1075.707031 695.816406 1155.0625 653.035156 1228.902344 741.363281 C 1228.902344 741.363281 1219.9375 722.734375 1221.3125 695.816406 C 1221.3125 695.824219 1332.414062 709.628906 1373.820312 755.175781 Z M 563.683594 629.585938 C 542.980469 612.332031 501.582031 604.742188 501.582031 604.742188 C 611.757812 568.199219 709.054688 568.085938 743.214844 569.46875 C 751.6875 569.808594 760.105469 571.03125 768.335938 573.082031 C 855.785156 594.847656 925.964844 639.246094 925.964844 639.246094 C 767.253906 628.894531 563.683594 629.585938 563.683594 629.585938 Z M 563.683594 629.585938 " fill-opacity="1" fill-rule="nonzero"/></g><g clip-path="url(#fafca34380)"><path fill="#004aad" d="M 543.613281 914.714844 L 568.339844 914.714844 L 584.851562 897.855469 L 579.867188 914.714844 L 608.230469 914.714844 L 574.945312 931.457031 L 569.179688 951.058594 L 560.507812 938.71875 L 529.589844 954.28125 L 553.953125 929.402344 Z M 543.613281 914.714844 " fill-opacity="1" fill-rule="nonzero"/></g><g clip-path="url(#c144f18c1a)"><g transform="matrix(1, 0, 0, 1, 892, 897)"><g clip-path="url(#12a1c33753)"><g clip-path="url(#0eded06a32)"><path fill="#004aad" d="M 65.183594 17.714844 L 40.453125 17.714844 L 23.945312 0.855469 L 28.929688 17.714844 L 0.566406 17.714844 L 33.851562 34.457031 L 39.617188 54.058594 L 48.289062 41.71875 L 79.207031 57.28125 L 54.84375 32.402344 Z M 65.183594 17.714844 " fill-opacity="1" fill-rule="nonzero"/></g></g></g></g><g clip-path="url(#fa5fced34c)"><g transform="matrix(1, 0, 0, 1, 212, 643)"><g clip-path="url(#2d53a93ab9)"><g clip-path="url(#3d68f7b2c1)"><path fill="#020202" d="M 151.78125 3.238281 C 151.78125 3.238281 57.09375 3.238281 4.171875 36.269531 L 18.914062 0.859375 Z M 151.78125 3.238281 " fill-opacity="1" fill-rule="nonzero"/></g><g clip-path="url(#7fe596cabc)"><path fill="#020202" d="M 159.347656 8.945312 C 159.347656 8.945312 40.792969 12.144531 0.582031 47.554688 C 0.582031 47.554688 41.570312 4.1875 159.347656 8.945312 Z M 159.347656 8.945312 " fill-opacity="1" fill-rule="nonzero"/></g><g clip-path="url(#c916537939)"><path fill="#020202" d="M 138.117188 17.550781 C 138.117188 17.550781 43.992188 20.058594 12.082031 48.203125 C 12.082031 48.203125 44.640625 13.789062 138.117188 17.550781 Z M 138.117188 17.550781 " fill-opacity="1" fill-rule="nonzero"/></g></g></g></g><g transform="matrix(1, 0, 0, 1, 370, 706)"><g clip-path="url(#b012f3ac1e)"><g fill="#fefdfd" fill-opacity="1"><g transform="translate(1.121314, 134.387619)"><g><path d="M 114.34375 0 L 80.71875 0 L 53.109375 -42.6875 L 35.890625 -24.015625 L 35.890625 0 L 8.53125 0 L 8.53125 -97.390625 L 35.890625 -97.390625 L 35.890625 -55.5 L 74.71875 -97.390625 L 111.9375 -97.390625 L 74.84375 -58.4375 Z M 114.34375 0 "/></g></g></g><g fill="#fefdfd" fill-opacity="1"><g transform="translate(114.771176, 134.387619)"><g><path d="M 102.46875 -22.421875 L 102.46875 -12.140625 C 102.46875 -9.472656 102.773438 -7.203125 103.390625 -5.328125 C 104.015625 -3.460938 105.175781 -1.6875 106.875 0 L 77.125 0 C 74.539062 -2.9375 73.25 -6.984375 73.25 -12.140625 L 73.25 -22.6875 C 73.25 -26.6875 72.582031 -29.394531 71.25 -30.8125 C 69.914062 -32.238281 67.554688 -32.953125 64.171875 -32.953125 L 35.75 -32.953125 L 35.75 0 L 8.53125 0 L 8.53125 -97.390625 L 66.578125 -97.390625 C 75.648438 -97.390625 83.050781 -96.1875 88.78125 -93.78125 C 94.519531 -91.382812 98.742188 -88.117188 101.453125 -83.984375 C 104.171875 -79.847656 105.53125 -75.15625 105.53125 -69.90625 C 105.53125 -64.488281 104.375 -60.019531 102.0625 -56.5 C 99.75 -52.988281 96.878906 -50.296875 93.453125 -48.421875 C 90.035156 -46.554688 86.59375 -45.269531 83.125 -44.5625 L 83.125 -44.296875 C 89.53125 -43.410156 94.351562 -41.253906 97.59375 -37.828125 C 100.84375 -34.398438 102.46875 -29.265625 102.46875 -22.421875 Z M 35.75 -55.90625 L 64.84375 -55.90625 C 69.738281 -55.90625 73.140625 -56.679688 75.046875 -58.234375 C 76.960938 -59.796875 77.921875 -62.039062 77.921875 -64.96875 C 77.921875 -67.90625 76.984375 -70.148438 75.109375 -71.703125 C 73.242188 -73.265625 69.820312 -74.046875 64.84375 -74.046875 L 35.75 -74.046875 Z M 35.75 -55.90625 "/></g></g></g><g fill="#fefdfd" fill-opacity="1"><g transform="translate(226.28675, 134.387619)"><g><path d="M 36.5625 -97.390625 L 36.5625 0 L 8.671875 0 L 8.671875 -97.390625 Z M 36.5625 -97.390625 "/></g></g></g><g fill="#fefdfd" fill-opacity="1"><g transform="translate(271.506589, 134.387619)"><g><path d="M 2.671875 -33.359375 L 31.625 -33.359375 C 32.15625 -30.867188 33.15625 -28.6875 34.625 -26.8125 C 36.09375 -24.945312 38.582031 -23.503906 42.09375 -22.484375 C 45.601562 -21.460938 50.5625 -20.953125 56.96875 -20.953125 C 63.644531 -20.953125 68.671875 -21.347656 72.046875 -22.140625 C 75.429688 -22.941406 77.722656 -23.921875 78.921875 -25.078125 C 80.117188 -26.234375 80.71875 -27.390625 80.71875 -28.546875 C 80.71875 -29.523438 80.453125 -30.4375 79.921875 -31.28125 C 79.390625 -32.132812 78.234375 -32.984375 76.453125 -33.828125 C 74.671875 -34.671875 71.976562 -35.46875 68.375 -36.21875 C 64.769531 -36.976562 59.859375 -37.757812 53.640625 -38.5625 C 43.847656 -39.800781 35.769531 -41.351562 29.40625 -43.21875 C 23.050781 -45.09375 18.09375 -47.316406 14.53125 -49.890625 C 10.976562 -52.472656 8.488281 -55.390625 7.0625 -58.640625 C 5.644531 -61.890625 4.9375 -65.515625 4.9375 -69.515625 C 4.9375 -74.941406 6.582031 -79.898438 9.875 -84.390625 C 13.164062 -88.878906 18.390625 -92.503906 25.546875 -95.265625 C 32.710938 -98.023438 42.164062 -99.40625 53.90625 -99.40625 C 66 -99.40625 75.738281 -97.867188 83.125 -94.796875 C 90.507812 -91.722656 96 -87.5625 99.59375 -82.3125 C 103.195312 -77.070312 105.3125 -71.160156 105.9375 -64.578125 L 77.25 -64.578125 C 76.894531 -66.890625 76.003906 -68.929688 74.578125 -70.703125 C 73.160156 -72.484375 70.847656 -73.882812 67.640625 -74.90625 C 64.441406 -75.9375 59.90625 -76.453125 54.03125 -76.453125 C 48.25 -76.453125 43.820312 -76.070312 40.75 -75.3125 C 37.6875 -74.5625 35.578125 -73.628906 34.421875 -72.515625 C 33.265625 -71.398438 32.6875 -70.222656 32.6875 -68.984375 C 32.6875 -68.003906 32.972656 -67.066406 33.546875 -66.171875 C 34.128906 -65.285156 35.351562 -64.441406 37.21875 -63.640625 C 39.09375 -62.835938 41.894531 -62.015625 45.625 -61.171875 C 49.363281 -60.328125 54.4375 -59.503906 60.84375 -58.703125 C 70.351562 -57.460938 78.222656 -55.90625 84.453125 -54.03125 C 90.679688 -52.164062 95.570312 -49.941406 99.125 -47.359375 C 102.6875 -44.785156 105.175781 -41.875 106.59375 -38.625 C 108.019531 -35.375 108.734375 -31.75 108.734375 -27.75 C 108.734375 -22.414062 107.066406 -17.476562 103.734375 -12.9375 C 100.398438 -8.40625 94.972656 -4.78125 87.453125 -2.0625 C 79.941406 0.644531 69.914062 2 57.375 2 C 44.476562 2 34.113281 0.488281 26.28125 -2.53125 C 18.457031 -5.5625 12.722656 -9.742188 9.078125 -15.078125 C 5.429688 -20.410156 3.296875 -26.503906 2.671875 -33.359375 Z M 2.671875 -33.359375 "/></g></g></g><g fill="#fefdfd" fill-opacity="1"><g transform="translate(380.753892, 134.387619)"><g><path d="M 39.09375 -73.109375 L 2.265625 -73.109375 L 2.265625 -97.390625 L 103.53125 -97.390625 L 103.53125 -73.109375 L 66.84375 -73.109375 L 66.84375 0 L 39.09375 0 Z M 39.09375 -73.109375 "/></g></g></g><g fill="#fefdfd" fill-opacity="1"><g transform="translate(486.53366, 134.387619)"><g><path d="M 36.5625 -97.390625 L 36.5625 0 L 8.671875 0 L 8.671875 -97.390625 Z M 36.5625 -97.390625 "/></g></g></g><g fill="#fefdfd" fill-opacity="1"><g transform="translate(531.753498, 134.387619)"><g><path d="M 68.046875 -97.390625 L 108.34375 0 L 79.390625 0 L 72.84375 -17.21875 L 34.15625 -17.21875 L 27.484375 0 L -1.203125 0 L 38.6875 -97.390625 Z M 64.4375 -38.5625 L 53.375 -67.25 L 42.421875 -38.5625 Z M 64.4375 -38.5625 "/></g></g></g><g fill="#fefdfd" fill-opacity="1"><g transform="translate(638.867178, 134.387619)"><g><path d="M 85.25 -42.15625 L 85.25 -97.390625 L 111.28125 -97.390625 L 111.28125 0 L 87.921875 0 L 34.5625 -60.578125 L 34.5625 0 L 8.53125 0 L 8.53125 -97.390625 L 37.625 -97.390625 Z M 85.25 -42.15625 "/></g></g></g></g></g><g transform="matrix(1, 0, 0, 1, 603, 879)"><g clip-path="url(#cfaa784cc5)"><g fill="#fefdfd" fill-opacity="1"><g transform="translate(0.844141, 61.243645)"><g><path d="M 44.953125 -11.640625 L 44.953125 -5.578125 C 44.953125 -4.347656 45.09375 -3.300781 45.375 -2.4375 C 45.65625 -1.582031 46.1875 -0.769531 46.96875 0 L 40.71875 0 C 39.570312 -1.382812 39 -3.242188 39 -5.578125 L 39 -11.515625 C 39 -13.640625 38.773438 -15.257812 38.328125 -16.375 C 37.878906 -17.5 37.050781 -18.273438 35.84375 -18.703125 C 34.644531 -19.128906 32.921875 -19.34375 30.671875 -19.34375 L 10.96875 -19.34375 L 10.96875 0 L 5.203125 0 L 5.203125 -44.703125 L 30.1875 -44.703125 C 33.820312 -44.703125 36.832031 -44.171875 39.21875 -43.109375 C 41.601562 -42.046875 43.390625 -40.601562 44.578125 -38.78125 C 45.765625 -36.96875 46.359375 -34.921875 46.359375 -32.640625 C 46.359375 -30.472656 45.859375 -28.644531 44.859375 -27.15625 C 43.859375 -25.664062 42.617188 -24.5 41.140625 -23.65625 C 39.671875 -22.820312 38.203125 -22.265625 36.734375 -21.984375 L 36.734375 -21.859375 C 39.347656 -21.535156 41.367188 -20.597656 42.796875 -19.046875 C 44.234375 -17.492188 44.953125 -15.023438 44.953125 -11.640625 Z M 10.96875 -24.375 L 29.875 -24.375 C 33.71875 -24.375 36.453125 -25.066406 38.078125 -26.453125 C 39.710938 -27.835938 40.53125 -29.695312 40.53125 -32.03125 C 40.53125 -34.394531 39.722656 -36.257812 38.109375 -37.625 C 36.503906 -39 33.800781 -39.6875 30 -39.6875 L 10.96875 -39.6875 Z M 10.96875 -24.375 "/></g></g></g><g fill="#fefdfd" fill-opacity="1"><g transform="translate(51.173425, 61.243645)"><g><path d="M 42.5625 0 L 5.203125 0 L 5.203125 -44.703125 L 41.390625 -44.703125 L 41.390625 -39.6875 L 10.96875 -39.6875 L 10.96875 -25.171875 L 38.828125 -25.171875 L 38.828125 -20.140625 L 10.96875 -20.140625 L 10.96875 -5.015625 L 42.5625 -5.015625 Z M 42.5625 0 "/></g></g></g><g fill="#fefdfd" fill-opacity="1"><g transform="translate(96.175898, 61.243645)"><g><path d="M 43.46875 -8.8125 L 43.46875 -44.703125 L 49.046875 -44.703125 L 49.046875 0 L 43.96875 0 L 10.78125 -37.359375 L 10.78125 0 L 5.203125 0 L 5.203125 -44.703125 L 11.640625 -44.703125 Z M 43.46875 -8.8125 "/></g></g></g><g fill="#fefdfd" fill-opacity="1"><g transform="translate(150.423764, 61.243645)"><g><path d="M 21 -39.6875 L 2.015625 -39.6875 L 2.015625 -44.703125 L 45.734375 -44.703125 L 45.734375 -39.6875 L 26.765625 -39.6875 L 26.765625 0 L 21 0 Z M 21 -39.6875 "/></g></g></g><g fill="#fefdfd" fill-opacity="1"><g transform="translate(198.181474, 61.243645)"><g/></g></g><g fill="#fefdfd" fill-opacity="1"><g transform="translate(221.386861, 61.243645)"><g><path d="M 26.765625 -44.703125 L 47.765625 0 L 41.515625 0 L 35.890625 -12.25 L 12.484375 -12.25 L 6.921875 0 L 0.734375 0 L 21.5 -44.703125 Z M 33.5625 -17.203125 L 24.125 -37.71875 L 14.75 -17.203125 Z M 33.5625 -17.203125 "/></g></g></g><g fill="#fefdfd" fill-opacity="1"><g transform="translate(269.893726, 61.243645)"><g/></g></g><g fill="#fefdfd" fill-opacity="1"><g transform="translate(70.922853, 131.468659)"><g><path d="M 3.0625 -21.5 L 3.0625 -23.203125 C 3.0625 -27.691406 4 -31.585938 5.875 -34.890625 C 7.75 -38.203125 10.472656 -40.765625 14.046875 -42.578125 C 17.617188 -44.398438 21.9375 -45.3125 27 -45.3125 C 31.78125 -45.3125 35.820312 -44.554688 39.125 -43.046875 C 42.4375 -41.535156 45.039062 -39.421875 46.9375 -36.703125 C 48.832031 -33.992188 50.003906 -30.863281 50.453125 -27.3125 L 44.578125 -27.3125 C 43.921875 -31.3125 42.164062 -34.472656 39.3125 -36.796875 C 36.457031 -39.128906 32.351562 -40.296875 27 -40.296875 C 21.125 -40.296875 16.632812 -38.785156 13.53125 -35.765625 C 10.425781 -32.742188 8.875 -28.535156 8.875 -23.140625 L 8.875 -21.546875 C 8.875 -16.160156 10.425781 -11.957031 13.53125 -8.9375 C 16.632812 -5.914062 21.125 -4.40625 27 -4.40625 C 32.351562 -4.40625 36.457031 -5.585938 39.3125 -7.953125 C 42.164062 -10.328125 43.921875 -13.472656 44.578125 -17.390625 L 50.453125 -17.390625 C 50.003906 -13.835938 48.832031 -10.710938 46.9375 -8.015625 C 45.039062 -5.328125 42.4375 -3.21875 39.125 -1.6875 C 35.820312 -0.15625 31.78125 0.609375 27 0.609375 C 21.9375 0.609375 17.617188 -0.296875 14.046875 -2.109375 C 10.472656 -3.929688 7.75 -6.503906 5.875 -9.828125 C 4 -13.148438 3.0625 -17.039062 3.0625 -21.5 Z M 3.0625 -21.5 "/></g></g></g><g fill="#fefdfd" fill-opacity="1"><g transform="translate(124.19111, 131.468659)"><g><path d="M 26.765625 -44.703125 L 47.765625 0 L 41.515625 0 L 35.890625 -12.25 L 12.484375 -12.25 L 6.921875 0 L 0.734375 0 L 21.5 -44.703125 Z M 33.5625 -17.203125 L 24.125 -37.71875 L 14.75 -17.203125 Z M 33.5625 -17.203125 "/></g></g></g><g fill="#fefdfd" fill-opacity="1"><g transform="translate(172.683545, 131.468659)"><g><path d="M 44.953125 -11.640625 L 44.953125 -5.578125 C 44.953125 -4.347656 45.09375 -3.300781 45.375 -2.4375 C 45.65625 -1.582031 46.1875 -0.769531 46.96875 0 L 40.71875 0 C 39.570312 -1.382812 39 -3.242188 39 -5.578125 L 39 -11.515625 C 39 -13.640625 38.773438 -15.257812 38.328125 -16.375 C 37.878906 -17.5 37.050781 -18.273438 35.84375 -18.703125 C 34.644531 -19.128906 32.921875 -19.34375 30.671875 -19.34375 L 10.96875 -19.34375 L 10.96875 0 L 5.203125 0 L 5.203125 -44.703125 L 30.1875 -44.703125 C 33.820312 -44.703125 36.832031 -44.171875 39.21875 -43.109375 C 41.601562 -42.046875 43.390625 -40.601562 44.578125 -38.78125 C 45.765625 -36.96875 46.359375 -34.921875 46.359375 -32.640625 C 46.359375 -30.472656 45.859375 -28.644531 44.859375 -27.15625 C 43.859375 -25.664062 42.617188 -24.5 41.140625 -23.65625 C 39.671875 -22.820312 38.203125 -22.265625 36.734375 -21.984375 L 36.734375 -21.859375 C 39.347656 -21.535156 41.367188 -20.597656 42.796875 -19.046875 C 44.234375 -17.492188 44.953125 -15.023438 44.953125 -11.640625 Z M 10.96875 -24.375 L 29.875 -24.375 C 33.71875 -24.375 36.453125 -25.066406 38.078125 -26.453125 C 39.710938 -27.835938 40.53125 -29.695312 40.53125 -32.03125 C 40.53125 -34.394531 39.722656 -36.257812 38.109375 -37.625 C 36.503906 -39 33.800781 -39.6875 30 -39.6875 L 10.96875 -39.6875 Z M 10.96875 -24.375 "/></g></g></g></g></g></svg>